<svg width="155" height="287" viewBox="0 0 155 287" fill="none" xmlns="http://www.w3.org/2000/svg">
<path d="M38.6733 92.44C33.2333 92.44 28.1933 91.36 23.5533 89.2C18.9133 87.04 14.8333 83.96 11.3133 79.96C7.87328 75.96 5.19328 71.24 3.27328 65.8C1.35328 60.36 0.393282 54.36 0.393282 47.8C0.393282 41.32 1.35328 35.36 3.27328 29.92C5.19328 24.4 7.87328 19.64 11.3133 15.64C14.8333 11.64 18.9133 8.56 23.5533 6.39999C28.1933 4.16 33.2333 3.04 38.6733 3.04C44.1133 3.04 49.1533 4.16 53.7933 6.39999C58.4333 8.56 62.4733 11.64 65.9133 15.64C69.4333 19.64 72.1533 24.4 74.0733 29.92C76.0733 35.36 77.0733 41.32 77.0733 47.8C77.0733 54.36 76.0733 60.36 74.0733 65.8C72.1533 71.24 69.4333 75.96 65.9133 79.96C62.4733 83.96 58.4333 87.04 53.7933 89.2C49.1533 91.36 44.1133 92.44 38.6733 92.44ZM38.6733 88.24C41.7133 88.24 44.3133 87.68 46.4733 86.56C48.6333 85.36 50.3533 83.32 51.6333 80.44C52.9933 77.48 53.9533 73.36 54.5133 68.08C55.1533 62.8 55.4733 56.04 55.4733 47.8C55.4733 39.56 55.1533 32.8 54.5133 27.52C53.9533 22.24 52.9933 18.12 51.6333 15.16C50.3533 12.2 48.6333 10.16 46.4733 9.04C44.3133 7.84 41.7133 7.24 38.6733 7.24C35.4733 7.24 32.7933 7.84 30.6333 9.04C28.4733 10.16 26.7533 12.2 25.4733 15.16C24.2733 18.12 23.3933 22.24 22.8333 27.52C22.2733 32.8 21.9933 39.56 21.9933 47.8C21.9933 56.04 22.2733 62.8 22.8333 68.08C23.3933 73.36 24.2733 77.48 25.4733 80.44C26.7533 83.32 28.4733 85.36 30.6333 86.56C32.7933 87.68 35.4733 88.24 38.6733 88.24ZM121.301 92.44C115.061 92.44 109.421 90.96 104.381 88C99.3408 84.96 95.3008 80.72 92.2608 75.28C89.3008 69.84 87.8208 63.44 87.8208 56.08C87.8208 48.88 89.3408 42.04 92.3808 35.56C95.5008 29 99.7008 23.16 104.981 18.04C110.341 12.84 116.461 8.68 123.341 5.56C130.221 2.44 137.461 0.759996 145.061 0.519999V4.6C138.501 5.24 132.781 7.28 127.901 10.72C123.021 14.08 119.061 18.36 116.021 23.56C113.061 28.68 111.141 34.32 110.261 40.48L110.621 40.6C112.701 38.92 114.941 37.64 117.341 36.76C119.821 35.8 122.661 35.32 125.861 35.32C131.221 35.32 136.061 36.52 140.381 38.92C144.701 41.32 148.141 44.6 150.701 48.76C153.341 52.84 154.661 57.48 154.661 62.68C154.661 67 153.741 70.96 151.901 74.56C150.141 78.16 147.661 81.32 144.461 84.04C141.341 86.68 137.781 88.76 133.781 90.28C129.781 91.72 125.621 92.44 121.301 92.44ZM120.941 88.24C124.141 88.24 126.661 87.48 128.501 85.96C130.341 84.44 131.661 81.92 132.461 78.4C133.261 74.88 133.661 70.12 133.661 64.12C133.661 57.56 133.261 52.56 132.461 49.12C131.661 45.68 130.461 43.32 128.861 42.04C127.261 40.76 125.301 40.12 122.981 40.12C119.701 40.12 116.901 40.96 114.581 42.64C112.341 44.32 110.541 46.32 109.181 48.64C108.621 51.2 108.261 53.92 108.101 56.8C108.021 59.68 107.981 62.24 107.981 64.48C107.981 70.48 108.381 75.2 109.181 78.64C110.061 82.08 111.461 84.56 113.381 86.08C115.301 87.52 117.821 88.24 120.941 88.24ZM5.34 211V199.36L33.18 177.4C37.5 173.96 40.82 170.84 43.14 168.04C45.46 165.24 47.06 162.44 47.94 159.64C48.82 156.84 49.26 153.84 49.26 150.64C49.26 143.76 47.74 138.36 44.7 134.44C41.66 130.52 37.5 128.56 32.22 128.56C29.26 128.56 26.5 129.16 23.94 130.36C21.38 131.48 19.34 132.92 17.82 134.68C16.3 136.44 15.54 138.2 15.54 139.96C15.54 140.76 15.7 141.36 16.02 141.76C16.34 142.16 16.74 142.36 17.22 142.36C17.86 142.36 18.62 142.12 19.5 141.64C20.38 141.16 21.66 140.92 23.34 140.92C25.98 140.92 27.94 141.68 29.22 143.2C30.5 144.72 31.14 146.72 31.14 149.2C31.14 152.64 30.1 155.12 28.02 156.64C26.02 158.16 23.66 158.92 20.94 158.92C18.14 158.92 15.82 158.24 13.98 156.88C12.22 155.44 10.9 153.64 10.02 151.48C9.22 149.32 8.82 147.12 8.82 144.88C8.82 140.08 10.3 136.08 13.26 132.88C16.3 129.68 20.18 127.28 24.9 125.68C29.62 124 34.58 123.16 39.78 123.16C43.46 123.16 47.1 123.6 50.7 124.48C54.3 125.36 57.54 126.72 60.42 128.56C63.38 130.4 65.74 132.8 67.5 135.76C69.26 138.72 70.14 142.24 70.14 146.32C70.14 149.04 69.66 151.72 68.7 154.36C67.74 157 66.14 159.64 63.9 162.28C61.66 164.92 58.54 167.6 54.54 170.32L20.1 193.84V194.32H59.22C61.14 194.32 62.62 194.08 63.66 193.6C64.7 193.04 65.42 191.88 65.82 190.12C66.3 188.28 66.54 185.44 66.54 181.6H70.14V211H5.34ZM80.34 211V199.36L108.18 177.4C112.5 173.96 115.82 170.84 118.14 168.04C120.46 165.24 122.06 162.44 122.94 159.64C123.82 156.84 124.26 153.84 124.26 150.64C124.26 143.76 122.74 138.36 119.7 134.44C116.66 130.52 112.5 128.56 107.22 128.56C104.26 128.56 101.5 129.16 98.94 130.36C96.38 131.48 94.34 132.92 92.82 134.68C91.3 136.44 90.54 138.2 90.54 139.96C90.54 140.76 90.7 141.36 91.02 141.76C91.34 142.16 91.74 142.36 92.22 142.36C92.86 142.36 93.62 142.12 94.5 141.64C95.38 141.16 96.66 140.92 98.34 140.92C100.98 140.92 102.94 141.68 104.22 143.2C105.5 144.72 106.14 146.72 106.14 149.2C106.14 152.64 105.1 155.12 103.02 156.64C101.02 158.16 98.66 158.92 95.94 158.92C93.14 158.92 90.82 158.24 88.98 156.88C87.22 155.44 85.9 153.64 85.02 151.48C84.22 149.32 83.82 147.12 83.82 144.88C83.82 140.08 85.3 136.08 88.26 132.88C91.3 129.68 95.18 127.28 99.9 125.68C104.62 124 109.58 123.16 114.78 123.16C118.46 123.16 122.1 123.6 125.7 124.48C129.3 125.36 132.54 126.72 135.42 128.56C138.38 130.4 140.74 132.8 142.5 135.76C144.26 138.72 145.14 142.24 145.14 146.32C145.14 149.04 144.66 151.72 143.7 154.36C142.74 157 141.14 159.64 138.9 162.28C136.66 164.92 133.54 167.6 129.54 170.32L95.1 193.84V194.32H134.22C136.14 194.32 137.62 194.08 138.66 193.6C139.7 193.04 140.42 191.88 140.82 190.12C141.3 188.28 141.54 185.44 141.54 181.6H145.14V211H80.34ZM3.01052 286V280.471L16.2345 270.04C18.2865 268.406 19.8635 266.924 20.9655 265.594C22.0675 264.264 22.8275 262.934 23.2455 261.604C23.6635 260.274 23.8725 258.849 23.8725 257.329C23.8725 254.061 23.1505 251.496 21.7065 249.634C20.2625 247.772 18.2865 246.841 15.7785 246.841C14.3725 246.841 13.0615 247.126 11.8455 247.696C10.6295 248.228 9.66052 248.912 8.93852 249.748C8.21652 250.584 7.85552 251.42 7.85552 252.256C7.85552 252.636 7.93152 252.921 8.08352 253.111C8.23552 253.301 8.42552 253.396 8.65352 253.396C8.95752 253.396 9.31852 253.282 9.73652 253.054C10.1545 252.826 10.7625 252.712 11.5605 252.712C12.8145 252.712 13.7455 253.073 14.3535 253.795C14.9615 254.517 15.2655 255.467 15.2655 256.645C15.2655 258.279 14.7715 259.457 13.7835 260.179C12.8335 260.901 11.7125 261.262 10.4205 261.262C9.09052 261.262 7.98852 260.939 7.11452 260.293C6.27852 259.609 5.65152 258.754 5.23352 257.728C4.85352 256.702 4.66352 255.657 4.66352 254.593C4.66352 252.313 5.36652 250.413 6.77252 248.893C8.21652 247.373 10.0595 246.233 12.3015 245.473C14.5435 244.675 16.8995 244.276 19.3695 244.276C21.1175 244.276 22.8465 244.485 24.5565 244.903C26.2665 245.321 27.8055 245.967 29.1735 246.841C30.5795 247.715 31.7005 248.855 32.5365 250.261C33.3725 251.667 33.7905 253.339 33.7905 255.277C33.7905 256.569 33.5625 257.842 33.1065 259.096C32.6505 260.35 31.8905 261.604 30.8265 262.858C29.7625 264.112 28.2805 265.385 26.3805 266.677L10.0215 277.849V278.077H28.6035C29.5155 278.077 30.2185 277.963 30.7125 277.735C31.2065 277.469 31.5485 276.918 31.7385 276.082C31.9665 275.208 32.0805 273.859 32.0805 272.035H33.7905V286H3.01052ZM57.5025 286.684C54.9185 286.684 52.5245 286.171 50.3205 285.145C48.1165 284.119 46.1785 282.656 44.5065 280.756C42.8725 278.856 41.5995 276.614 40.6875 274.03C39.7755 271.446 39.3195 268.596 39.3195 265.48C39.3195 262.402 39.7755 259.571 40.6875 256.987C41.5995 254.365 42.8725 252.104 44.5065 250.204C46.1785 248.304 48.1165 246.841 50.3205 245.815C52.5245 244.751 54.9185 244.219 57.5025 244.219C60.0865 244.219 62.4805 244.751 64.6845 245.815C66.8885 246.841 68.8075 248.304 70.4415 250.204C72.1135 252.104 73.4055 254.365 74.3175 256.987C75.2675 259.571 75.7425 262.402 75.7425 265.48C75.7425 268.596 75.2675 271.446 74.3175 274.03C73.4055 276.614 72.1135 278.856 70.4415 280.756C68.8075 282.656 66.8885 284.119 64.6845 285.145C62.4805 286.171 60.0865 286.684 57.5025 286.684ZM57.5025 284.689C58.9465 284.689 60.1815 284.423 61.2075 283.891C62.2335 283.321 63.0505 282.352 63.6585 280.984C64.3045 279.578 64.7605 277.621 65.0265 275.113C65.3305 272.605 65.4825 269.394 65.4825 265.48C65.4825 261.566 65.3305 258.355 65.0265 255.847C64.7605 253.339 64.3045 251.382 63.6585 249.976C63.0505 248.57 62.2335 247.601 61.2075 247.069C60.1815 246.499 58.9465 246.214 57.5025 246.214C55.9825 246.214 54.7095 246.499 53.6835 247.069C52.6575 247.601 51.8405 248.57 51.2325 249.976C50.6625 251.382 50.2445 253.339 49.9785 255.847C49.7125 258.355 49.5795 261.566 49.5795 265.48C49.5795 269.394 49.7125 272.605 49.9785 275.113C50.2445 277.621 50.6625 279.578 51.2325 280.984C51.8405 282.352 52.6575 283.321 53.6835 283.891C54.7095 284.423 55.9825 284.689 57.5025 284.689ZM79.3816 286V280.471L92.6056 270.04C94.6576 268.406 96.2346 266.924 97.3366 265.594C98.4386 264.264 99.1986 262.934 99.6166 261.604C100.035 260.274 100.244 258.849 100.244 257.329C100.244 254.061 99.5216 251.496 98.0776 249.634C96.6336 247.772 94.6576 246.841 92.1496 246.841C90.7436 246.841 89.4326 247.126 88.2166 247.696C87.0006 248.228 86.0316 248.912 85.3096 249.748C84.5876 250.584 84.2266 251.42 84.2266 252.256C84.2266 252.636 84.3026 252.921 84.4546 253.111C84.6066 253.301 84.7966 253.396 85.0246 253.396C85.3286 253.396 85.6896 253.282 86.1076 253.054C86.5256 252.826 87.1336 252.712 87.9316 252.712C89.1856 252.712 90.1166 253.073 90.7246 253.795C91.3326 254.517 91.6366 255.467 91.6366 256.645C91.6366 258.279 91.1426 259.457 90.1546 260.179C89.2046 260.901 88.0836 261.262 86.7916 261.262C85.4616 261.262 84.3596 260.939 83.4856 260.293C82.6496 259.609 82.0226 258.754 81.6046 257.728C81.2246 256.702 81.0346 255.657 81.0346 254.593C81.0346 252.313 81.7376 250.413 83.1436 248.893C84.5876 247.373 86.4306 246.233 88.6726 245.473C90.9146 244.675 93.2706 244.276 95.7406 244.276C97.4886 244.276 99.2176 244.485 100.928 244.903C102.638 245.321 104.177 245.967 105.545 246.841C106.951 247.715 108.072 248.855 108.908 250.261C109.744 251.667 110.162 253.339 110.162 255.277C110.162 256.569 109.934 257.842 109.478 259.096C109.022 260.35 108.262 261.604 107.198 262.858C106.134 264.112 104.652 265.385 102.752 266.677L86.3926 277.849V278.077H104.975C105.887 278.077 106.59 277.963 107.084 277.735C107.578 277.469 107.92 276.918 108.11 276.082C108.338 275.208 108.452 273.859 108.452 272.035H110.162V286H79.3816ZM125.655 286V284.29H131.811V274.6H114.483V272.719L135.003 244.276H140.817V272.776H147.942V268.273H149.709V279.274H147.942V274.6H140.817V284.29H146.289V286H125.655ZM117.105 272.776H131.811V252.484H131.583L117.105 272.548V272.776Z" fill="white"/>
</svg>
